<?xml version="1.0" encoding="utf-8"?>
<!-- Generator: Adobe Illustrator 25.0.1, SVG Export Plug-In . SVG Version: 6.00 Build 0)  -->
<svg version="1.1" id="圖層_1" xmlns="http://www.w3.org/2000/svg" xmlns:xlink="http://www.w3.org/1999/xlink" x="0px" y="0px"
	 viewBox="0 0 960 607.9" style="enable-background:new 0 0 960 607.9;" xml:space="preserve">
<style type="text/css">
	.st0{fill:#FFFFFF;}
</style>
<path class="st0" d="M387.4,271.8c0,0,90.8-6.8,90.8-113.3C478.3,52,403.9,0,309.8,0H0v595.3h309.8c0,0,189.1,6,189.1-175.7
	C498.9,419.6,507.2,271.8,387.4,271.8L387.4,271.8z M287.5,105.8h22.3c0,0,42.1,0,42.1,62s-24.8,70.9-52.8,70.9H136.5V105.8H287.5
	L287.5,105.8z M301,489.5H136.5V330.4h173.3c0,0,62.8-0.8,62.8,81.8C372.6,481.8,325.7,489,301,489.5L301,489.5z M751.1,151.4
	c-228.9,0-228.8,228.8-228.8,228.8s-15.7,227.6,228.8,227.6c0,0,203.7,11.6,203.7-158.3H850.1c0,0,3.5,64-95.4,64
	c0,0-104.8,7-104.8-103.6h308.5C958.4,409.9,992.1,151.4,751.1,151.4L751.1,151.4z M648.7,330.4c0,0,12.8-91.8,104.8-91.8
	c91.9,0,90.8,91.8,90.8,91.8H648.7z M868.7,108.3H623.1V35h245.7V108.3L868.7,108.3z"/>
</svg>
